<?xml version="1.0" encoding="utf-8"?>
<!-- Generator: Adobe Illustrator 16.0.0, SVG Export Plug-In . SVG Version: 6.00 Build 0)  -->
<!DOCTYPE svg PUBLIC "-//W3C//DTD SVG 1.1//EN" "http://www.w3.org/Graphics/SVG/1.1/DTD/svg11.dtd">
<svg version="1.1" id="Layer_1" xmlns="http://www.w3.org/2000/svg" xmlns:xlink="http://www.w3.org/1999/xlink" x="0px" y="0px"
	 width="160.791px" height="159.163px" viewBox="0 0 160.791 159.163" enable-background="new 0 0 160.791 159.163"
	 xml:space="preserve">
<path fill="none" stroke="#FFFFFF" stroke-width="6" stroke-miterlimit="10" d="M157.791,80.396c0,26.885-60.809,75.756-85,75.767
	C38.575,156.177,3,128.585,3,80.396C3,37.652,37.65,3,80.396,3C123.14,3,157.791,37.652,157.791,80.396z M68.713,156.034
	c22.492-3.206,16.571-21.868,49.701-45.494c30.546-21.783,34.624-12.221,39.377-30.144"/>
<g>
	<path fill="#FFFFFF" d="M14.217,196.471h-5.63l-1.144,4.56H3.234l6.012-21.349h4.34l5.997,21.349h-4.208L14.217,196.471z
		 M9.437,193.142h3.929l-1.921-7.551h-0.088L9.437,193.142z"/>
	<path fill="#FFFFFF" d="M26.62,192.542v8.489h-4.164v-21.334h6.965c2.102,0,3.751,0.555,4.948,1.664
		c1.197,1.11,1.796,2.652,1.796,4.626c0,1.114-0.25,2.075-0.748,2.882c-0.499,0.806-1.227,1.449-2.185,1.928
		c1.095,0.372,1.884,0.987,2.368,1.848s0.726,1.936,0.726,3.226v1.51c0,0.587,0.068,1.215,0.206,1.885
		c0.137,0.67,0.376,1.156,0.718,1.459v0.308h-4.311c-0.342-0.313-0.558-0.821-0.646-1.524c-0.088-0.704-0.132-1.423-0.132-2.156
		v-1.451c0-1.065-0.218-1.892-0.652-2.478c-0.435-0.587-1.058-0.88-1.87-0.88H26.62z M26.62,189.213h2.786
		c0.85,0,1.496-0.26,1.935-0.777c0.44-0.519,0.66-1.256,0.66-2.214c0-0.978-0.22-1.755-0.66-2.332
		c-0.439-0.576-1.08-0.864-1.92-0.864H26.62V189.213z"/>
	<path fill="#FFFFFF" d="M52.073,183.01h-4.81v18.021h-4.164V183.01h-4.78v-3.328h13.753V183.01z"/>
	<path fill="#FFFFFF" d="M64.535,195.459c0-0.831-0.215-1.488-0.646-1.973c-0.43-0.483-1.188-0.96-2.272-1.43
		c-2.219-0.771-3.883-1.649-4.993-2.632s-1.664-2.357-1.664-4.127c0-1.75,0.645-3.175,1.936-4.274c1.29-1.1,2.937-1.649,4.941-1.649
		c2.033,0,3.685,0.613,4.956,1.84c1.271,1.228,1.886,2.774,1.848,4.641l-0.03,0.088h-4.046c0-0.977-0.245-1.769-0.733-2.375
		c-0.489-0.605-1.178-0.909-2.067-0.909c-0.831,0-1.479,0.252-1.943,0.755c-0.464,0.504-0.696,1.137-0.696,1.899
		c0,0.703,0.259,1.282,0.777,1.737c0.518,0.454,1.417,0.96,2.698,1.518c2.023,0.685,3.546,1.552,4.567,2.603
		c1.021,1.051,1.532,2.471,1.532,4.26c0,1.847-0.616,3.294-1.848,4.34s-2.869,1.568-4.912,1.568c-2.034,0-3.795-0.594-5.286-1.781
		s-2.211-2.891-2.163-5.109l0.029-0.088h4.062c0,1.319,0.279,2.268,0.836,2.844c0.557,0.577,1.397,0.865,2.522,0.865
		c0.879,0,1.532-0.234,1.957-0.704C64.322,196.896,64.535,196.26,64.535,195.459z"/>
	<path fill="#FFFFFF" d="M81.996,195.459c0-0.831-0.216-1.488-0.646-1.973c-0.43-0.483-1.188-0.96-2.272-1.43
		c-2.219-0.771-3.883-1.649-4.993-2.632s-1.664-2.357-1.664-4.127c0-1.75,0.645-3.175,1.936-4.274c1.29-1.1,2.937-1.649,4.941-1.649
		c2.033,0,3.686,0.613,4.956,1.84c1.271,1.228,1.887,2.774,1.848,4.641l-0.029,0.088h-4.047c0-0.977-0.245-1.769-0.733-2.375
		c-0.489-0.605-1.178-0.909-2.067-0.909c-0.831,0-1.479,0.252-1.943,0.755c-0.464,0.504-0.696,1.137-0.696,1.899
		c0,0.703,0.259,1.282,0.777,1.737c0.518,0.454,1.417,0.96,2.698,1.518c2.023,0.685,3.546,1.552,4.567,2.603s1.532,2.471,1.532,4.26
		c0,1.847-0.616,3.294-1.848,4.34s-2.869,1.568-4.912,1.568c-2.034,0-3.795-0.594-5.286-1.781s-2.211-2.891-2.163-5.109l0.029-0.088
		h4.062c0,1.319,0.279,2.268,0.836,2.844c0.557,0.577,1.397,0.865,2.522,0.865c0.879,0,1.532-0.234,1.957-0.704
		C81.783,196.896,81.996,196.26,81.996,195.459z"/>
	<path fill="#FFFFFF" d="M99.458,195.459c0-0.831-0.216-1.488-0.646-1.973c-0.43-0.483-1.188-0.96-2.272-1.43
		c-2.219-0.771-3.883-1.649-4.992-2.632c-1.11-0.982-1.665-2.357-1.665-4.127c0-1.75,0.646-3.175,1.936-4.274
		c1.291-1.1,2.938-1.649,4.941-1.649c2.033,0,3.686,0.613,4.956,1.84c1.271,1.228,1.887,2.774,1.848,4.641l-0.029,0.088h-4.047
		c0-0.977-0.245-1.769-0.733-2.375c-0.489-0.605-1.178-0.909-2.067-0.909c-0.831,0-1.479,0.252-1.942,0.755
		c-0.465,0.504-0.696,1.137-0.696,1.899c0,0.703,0.259,1.282,0.776,1.737c0.519,0.454,1.418,0.96,2.698,1.518
		c2.023,0.685,3.546,1.552,4.567,2.603s1.532,2.471,1.532,4.26c0,1.847-0.616,3.294-1.848,4.34s-2.869,1.568-4.912,1.568
		c-2.033,0-3.795-0.594-5.285-1.781c-1.491-1.188-2.212-2.891-2.163-5.109l0.029-0.088h4.062c0,1.319,0.278,2.268,0.836,2.844
		c0.557,0.577,1.397,0.865,2.521,0.865c0.88,0,1.532-0.234,1.958-0.704C99.245,196.896,99.458,196.26,99.458,195.459z"/>
	<path fill="#FFFFFF" d="M111.612,193.363v7.668h-4.179v-21.349h7.419c2.131,0,3.812,0.63,5.044,1.89
		c1.231,1.26,1.847,2.91,1.847,4.95c0,2.051-0.618,3.704-1.854,4.958c-1.236,1.255-2.915,1.883-5.036,1.883H111.612z
		 M111.612,190.034h3.24c0.889,0,1.568-0.328,2.038-0.984c0.469-0.656,0.703-1.488,0.703-2.498c0-1.019-0.231-1.863-0.696-2.534
		c-0.464-0.671-1.146-1.007-2.045-1.007h-3.24V190.034z"/>
	<path fill="#FFFFFF" d="M139.997,193.363c0,2.502-0.68,4.457-2.038,5.864c-1.359,1.408-3.168,2.111-5.426,2.111
		s-4.062-0.703-5.41-2.111c-1.349-1.407-2.023-3.362-2.023-5.864v-5.982c0-2.493,0.675-4.45,2.023-5.872
		c1.349-1.423,3.147-2.134,5.396-2.134s4.057,0.711,5.426,2.134c1.368,1.422,2.053,3.379,2.053,5.872V193.363z M135.848,187.334
		c0-1.529-0.284-2.684-0.851-3.463c-0.567-0.779-1.394-1.169-2.479-1.169c-1.095,0-1.916,0.388-2.463,1.162
		c-0.548,0.774-0.821,1.931-0.821,3.47v6.029c0,1.549,0.278,2.711,0.836,3.485c0.557,0.774,1.378,1.161,2.463,1.161
		c1.075,0,1.896-0.387,2.464-1.161c0.566-0.774,0.851-1.937,0.851-3.485V187.334z"/>
	<path fill="#FFFFFF" d="M156.08,183.01h-4.81v18.021h-4.164V183.01h-4.78v-3.328h13.754V183.01z"/>
</g>
</svg>
